HIERARCHY
ROOT SpineBase
{
  OFFSET 0.000000 0.000000 0.000000
  CHANNELS 6 Xposition Yposition Zposition Zrotation Xrotation Yrotation
  JOINT SpineMid
  {
    OFFSET 0.000000 31.380823 0.000000
    CHANNELS 3 Zrotation Xrotation Yrotation
    JOINT SpineShoulder
    {
      OFFSET 0.095723 23.361858 -0.836066
      CHANNELS 3 Zrotation Xrotation Yrotation
      JOINT Neck
      {
        OFFSET 0.064288 7.739658 -0.616573
        CHANNELS 3 Zrotation Xrotation Yrotation
        JOINT Head
        {
          OFFSET -4.496866 13.623718 0.815193
          CHANNELS 3 Zrotation Xrotation Yrotation
          End Site
          {
            OFFSET 0 0 0
          }
        }
      }
      JOINT ShoulderLeft
      {
        OFFSET -16.341442 -4.574531 8.094275
        CHANNELS 3 Zrotation Xrotation Yrotation
        JOINT ElbowLeft
        {
          OFFSET -3.211930 -28.083891 1.652975
          CHANNELS 3 Zrotation Xrotation Yrotation
          JOINT WristLeft
          {
            OFFSET -0.625526 -20.704261 -6.739074
            CHANNELS 3 Zrotation Xrotation Yrotation
            JOINT HandLeft
            {
              OFFSET -0.030328 -5.315510 0.670591
              CHANNELS 3 Zrotation Xrotation Yrotation
              JOINT HandTipLeft
              {
                OFFSET 0.288625 -5.311733 -1.277782
                CHANNELS 3 Zrotation Xrotation Yrotation
                End Site
                {
                  OFFSET 0 0 0
                }
              }
              JOINT ThumbLeft
              {
                OFFSET -1.797395 -0.264434 -1.256533
                CHANNELS 3 Zrotation Xrotation Yrotation
                End Site
                {
                  OFFSET 0 0 0
                }
              }
            }
          }
        }
      }
      JOINT ShoulderRight
      {
        OFFSET 14.043795 -2.949095 -7.161349
        CHANNELS 3 Zrotation Xrotation Yrotation
        JOINT ElbowRight
        {
          OFFSET 9.816878 -21.348621 0.715329
          CHANNELS 3 Zrotation Xrotation Yrotation
          JOINT WristRight
          {
            OFFSET -10.447527 -8.280503 -18.235892
            CHANNELS 3 Zrotation Xrotation Yrotation
            JOINT HandRight
            {
              OFFSET -5.572918 2.785571 -5.253631
              CHANNELS 3 Zrotation Xrotation Yrotation
              JOINT HandTipRight
              {
                OFFSET -2.414802 -0.571602 -2.536809
                CHANNELS 3 Zrotation Xrotation Yrotation
                End Site
                {
                  OFFSET 0 0 0
                }
              }
              JOINT ThumbRight
              {
                OFFSET -3.895875 3.860263 4.500973
                CHANNELS 3 Zrotation Xrotation Yrotation
                End Site
                {
                  OFFSET 0 0 0
                }
              }
            }
          }
        }
      }
    }
  }
  JOINT HipLeft
  {
    OFFSET -6.289908 -0.176965 -0.824308
    CHANNELS 3 Zrotation Xrotation Yrotation
    JOINT KneeLeft
    {
      OFFSET 4.478121 -37.425987 2.702924
      CHANNELS 3 Zrotation Xrotation Yrotation
      JOINT AnkleLeft
      {
        OFFSET 7.947453 -37.590799 13.394465
        CHANNELS 3 Zrotation Xrotation Yrotation
        JOINT FootLeft
        {
          OFFSET -2.649412 -7.269680 -4.499439
          CHANNELS 3 Zrotation Xrotation Yrotation
          End Site
          {
            OFFSET 0 0 0
          }
        }
      }
    }
  }
  JOINT HipRight
  {
    OFFSET 6.825749 1.820026 -6.261434
    CHANNELS 3 Zrotation Xrotation Yrotation
    JOINT KneeRight
    {
      OFFSET 7.861973 -36.311771 -6.545859
      CHANNELS 3 Zrotation Xrotation Yrotation
      JOINT AnkleRight
      {
        OFFSET 7.840204 -37.161723 8.461483
        CHANNELS 3 Zrotation Xrotation Yrotation
        JOINT FootRight
        {
          OFFSET -2.190767 -5.021225 -8.602723
          CHANNELS 3 Zrotation Xrotation Yrotation
          End Site
          {
            OFFSET 0 0 0
          }
        }
      }
    }
  }
}
MOTION
Frames: 12
Frame Time: 0.033333
-26.503091 82.871256 345.866007 -0.000000 0.000000 22.516565 0.000000 0.000000 -22.516565 -0.000000 0.000000 0.000000 -0.000000 0.000000 0.000000 0.000000 0.000000 0.000000 -0.000000 0.000000 0.000000 -0.000000 0.000000 0.000000 -0.000000 0.000000 0.000000 -0.000000 0.000000 0.000000 0.000000 0.000000 0.000000 0.000000 0.000000 0.000000 -0.000000 0.000000 0.000000 -0.000000 0.000000 0.000000 -0.000000 0.000000 0.000000 -0.000000 0.000000 0.000000 0.000000 0.000000 0.000000 0.000000 0.000000 0.000000 0.000000 0.000000 -22.516565 -0.000000 0.000000 0.000000 -0.000000 0.000000 0.000000 0.000000 0.000000 0.000000 0.000000 0.000000 -22.516565 -0.000000 0.000000 0.000000 -0.000000 0.000000 0.000000 0.000000 0.000000 0.000000
-25.727884 82.658956 345.038517 -0.097379 -0.708747 23.113819 0.367803 0.613621 -23.116391 -0.000000 0.000000 0.000000 0.385752 1.004458 0.304594 0.000000 0.000000 0.000000 0.136878 1.042656 -0.112516 2.938199 -7.172970 -0.490359 3.783184 -8.085990 2.025884 -5.120277 8.161525 -1.071632 0.000000 0.000000 0.000000 0.000000 0.000000 0.000000 -0.000000 0.000000 0.000000 -1.557507 1.843705 1.072484 5.248724 -5.717841 -1.174365 -11.433425 10.383661 4.448922 0.000000 0.000000 0.000000 0.000000 0.000000 0.000000 -1.130829 1.647349 -23.172413 1.784345 -0.360155 0.091201 4.358011 1.617443 -3.365977 0.000000 0.000000 0.000000 0.002026 -1.174718 -23.572309 -0.379995 1.785381 0.460048 2.095577 -7.612187 -0.142550 0.000000 0.000000 0.000000
-25.015155 82.466958 344.289572 -0.191718 -1.351586 23.601179 0.058081 -0.015521 -23.603351 0.045914 0.018035 0.002829 0.827355 3.114745 0.511278 0.000000 0.000000 0.000000 0.412714 2.953063 -0.184594 5.060389 -12.917723 -0.570958 5.463132 -10.396269 3.313941 -7.381617 8.893489 -1.643195 0.000000 0.000000 0.000000 0.000000 0.000000 0.000000 0.086433 1.324513 -0.005121 -2.786734 3.076907 2.137809 9.563027 -10.373539 -1.757190 -21.998448 18.197524 10.301716 0.000000 0.000000 0.000000 0.000000 0.000000 0.000000 -2.239554 3.139135 -23.677605 4.199299 -1.091173 0.355156 6.865345 3.238643 -6.134615 0.000000 0.000000 0.000000 -0.053364 -2.174387 -24.463517 -1.533404 3.857319 0.836067 4.857292 -15.109427 0.247898 0.000000 0.000000 0.000000
-24.364903 82.295261 343.619170 -0.283261 -1.930516 23.982378 0.079893 -0.023486 -23.987812 0.063789 0.024022 0.003115 1.203469 4.246185 0.645288 0.000000 0.000000 0.000000 0.703205 3.608650 -0.197249 6.413167 -17.243918 -0.490686 6.067019 -10.024754 3.860480 -8.320229 5.987267 -2.100868 0.000000 0.000000 0.000000 0.000000 0.000000 0.000000 0.137007 1.895468 -0.007107 -3.669565 3.710066 3.165740 12.765483 -13.643683 -2.016652 -30.581136 23.062788 16.162665 0.000000 0.000000 0.000000 0.000000 0.000000 0.000000 -3.339489 4.468904 -24.045086 5.772840 -1.376814 0.417769 8.794458 4.210302 -7.710544 0.000000 0.000000 0.000000 -0.147288 -2.978455 -25.186813 -2.099405 5.338431 1.183509 6.832534 -21.109540 0.933322 0.000000 0.000000 0.000000
-23.777128 82.143867 343.027312 -0.372237 -2.447294 24.260428 0.097043 -0.031330 -24.270185 0.078355 0.027964 0.002764 1.555645 5.088913 0.702088 0.000000 0.000000 0.000000 1.046649 3.676870 -0.149219 7.016141 -20.231237 -0.419253 6.172196 -8.319426 3.859244 -8.839239 2.044131 -2.321159 0.000000 0.000000 0.000000 0.000000 0.000000 0.000000 0.192568 2.408006 -0.008726 -4.190077 3.754952 4.138133 14.699133 -15.317337 -2.206774 -36.133779 25.317095 20.743630 0.000000 0.000000 0.000000 0.000000 0.000000 0.000000 -4.441570 5.630973 -24.286376 6.727379 -0.835796 0.432262 9.829224 4.243355 -8.065394 0.000000 0.000000 0.000000 -0.263330 -3.571315 -25.738439 -2.516463 6.505602 1.459150 8.373195 -25.586544 1.841606 0.000000 0.000000 0.000000
-23.251831 82.012774 342.513997 -0.458862 -2.903437 24.437629 0.109630 -0.038922 -24.452520 0.089658 0.029843 0.001843 1.883655 5.640988 0.684527 0.000000 0.000000 0.000000 1.439777 3.151639 -0.035480 6.883467 -21.978138 -0.446963 6.035791 -5.730890 3.439644 -9.405302 -1.162900 -2.199582 0.000000 0.000000 0.000000 0.000000 0.000000 0.000000 0.253210 2.863663 -0.009969 -4.333330 3.220402 5.048200 15.281827 -15.278613 -2.499604 -38.057469 25.450819 23.287446 0.000000 0.000000 0.000000 0.000000 0.000000 0.000000 -5.554563 6.620054 -24.411884 8.238632 -0.789346 0.553378 8.794088 4.648431 -7.517374 0.000000 0.000000 0.000000 -0.388123 -3.941579 -26.114581 -2.775168 7.350844 1.647918 9.373564 -28.406901 2.837693 0.000000 0.000000 0.000000
-22.732105 81.913181 342.056889 -0.517537 -3.260010 24.347507 0.146480 -0.024727 -24.366275 0.105127 0.043451 0.002337 2.355683 5.655425 0.516136 0.000000 0.000000 0.000000 1.678576 1.703560 0.179196 6.677061 -23.121093 -0.635516 1.393962 2.529582 2.721216 -6.206892 -0.192748 -2.103925 0.000000 0.000000 0.000000 0.000000 0.000000 0.000000 0.268646 3.178678 -0.012490 -3.871069 1.636228 6.063776 14.026841 -13.003025 -3.636592 -35.071097 22.169478 25.036312 0.000000 0.000000 0.000000 0.000000 0.000000 0.000000 -7.303535 7.927110 -24.191833 9.454909 -1.704957 0.187853 7.597044 6.079918 -5.889298 0.000000 0.000000 0.000000 -0.772483 -3.757909 -26.023009 -2.435577 7.645210 1.593034 7.261613 -23.459530 3.761965 0.000000 0.000000 0.000000
-22.397196 81.817693 341.817778 -0.640849 -3.693253 24.242262 0.110114 -0.057075 -24.270203 0.100946 0.023745 -0.002390 2.510142 5.370803 0.256598 0.000000 0.000000 0.000000 2.433894 0.226084 0.434050 4.684820 -22.883746 -0.784090 1.892515 9.149983 1.515037 -8.040955 -2.476714 -1.230451 0.000000 0.000000 0.000000 0.000000 0.000000 0.000000 1.229814 3.988831 0.105356 -3.585857 -0.799894 6.387116 12.001901 -8.700946 -3.289635 -28.887617 17.925147 22.485518 0.000000 0.000000 0.000000 0.000000 0.000000 0.000000 -8.551226 8.950000 -23.952262 9.940251 -1.540785 -0.085417 2.850845 6.962402 -1.892747 0.000000 0.000000 0.000000 -0.583715 -3.328572 -25.887940 -2.435946 7.349945 1.475565 7.264766 -23.477663 4.487267 0.000000 0.000000 0.000000
-22.160174 81.731864 341.662371 -0.811880 -4.107668 24.215068 0.169021 -0.027846 -24.256188 0.127809 0.063972 -0.005761 2.567362 4.873520 -0.002612 0.000000 0.000000 0.000000 3.141786 -1.762934 0.752624 1.555049 -20.123268 -0.840378 3.381046 10.200326 0.278342 -8.837610 -0.103967 -0.453334 0.000000 0.000000 0.000000 0.000000 0.000000 0.000000 1.607791 4.391456 0.126097 -2.930984 -3.013099 7.299224 8.462408 -2.725512 -3.703036 -21.179125 11.510522 20.291830 0.000000 0.000000 0.000000 0.000000 0.000000 0.000000 -9.171084 9.368271 -23.873367 9.069864 -0.881325 -0.568183 0.073984 6.698509 1.551370 0.000000 0.000000 0.000000 -0.317332 -2.916753 -25.834261 -2.452838 7.084123 1.374167 6.880492 -22.775788 5.326168 0.000000 0.000000 0.000000
-21.875218 81.683320 341.408884 -0.847379 -4.239797 24.151961 0.120072 -0.075046 -24.196371 0.123555 0.039749 -0.007874 2.614585 4.580829 -0.167099 0.000000 0.000000 0.000000 3.565957 -3.498558 1.030095 -0.623237 -17.846033 -0.740566 2.931469 14.374158 -0.510233 -8.222207 -2.761853 -0.094066 0.000000 0.000000 0.000000 0.000000 0.000000 0.000000 1.890218 4.646835 0.128280 -2.386477 -4.869228 8.276635 5.365848 2.717341 -3.937592 -12.424110 4.272206 16.424208 0.000000 0.000000 0.000000 0.000000 0.000000 0.000000 -9.625614 8.668541 -23.947032 7.035600 0.706264 -1.098962 -2.148572 3.886048 5.593800 0.000000 0.000000 0.000000 -0.473979 -2.830470 -25.759593 -2.310082 7.069737 1.313172 6.748009 -22.884246 6.108330 0.000000 0.000000 0.000000
-21.475742 81.682523 340.936340 -0.740026 -4.115858 24.524120 0.044927 -0.118348 -24.560453 0.083126 -0.047052 -0.007006 2.586859 4.288637 -0.268725 0.000000 0.000000 0.000000 3.315647 -5.317244 1.270997 -1.928096 -14.978852 -0.583163 0.589930 20.769791 -0.609863 -3.652279 -9.213066 -0.457924 0.000000 0.000000 0.000000 0.000000 0.000000 0.000000 1.973177 4.746741 0.151997 -2.174200 -6.051373 9.260886 4.036621 6.280640 -3.308097 -7.624237 -0.288403 12.466999 0.000000 0.000000 0.000000 0.000000 0.000000 0.000000 -9.851652 7.310155 -24.579268 4.284564 2.537322 -1.591317 -3.112685 -0.445792 9.359744 0.000000 0.000000 0.000000 -1.374958 -3.222359 -26.170698 -1.785143 7.633897 1.331038 6.947179 -24.271283 7.006436 0.000000 0.000000 0.000000
-21.019887 81.693762 340.340926 -0.489990 -3.805900 24.939399 -0.073802 -0.173829 -24.957721 -0.002096 -0.182942 -0.003709 2.380714 4.120173 -0.281397 0.000000 0.000000 0.000000 2.495010 -7.045253 1.437795 -2.327000 -12.260930 -0.434986 -3.390694 30.050666 0.364783 3.052079 -21.275643 -0.126269 0.000000 0.000000 0.000000 0.000000 0.000000 0.000000 1.749562 4.814079 0.221010 -1.949243 -6.479563 9.451922 5.151556 6.562189 -1.407954 -6.127835 -1.861450 6.735361 0.000000 0.000000 0.000000 0.000000 0.000000 0.000000 -9.931910 5.364548 -25.341075 1.100539 4.618323 -1.890041 -2.190429 -7.575353 12.851852 0.000000 0.000000 0.000000 -2.733082 -3.810226 -26.642801 -1.075923 8.386808 1.346765 6.901408 -24.476427 7.322480 0.000000 0.000000 0.000000
